<svg width="825" height="825" viewBox="0 0 825 825" fill="none" xmlns="http://www.w3.org/2000/svg">
<g filter="url(#filter0_d_6001_13)">
<circle cx="412.5" cy="417.5" r="392.5" fill="url(#paint0_linear_6001_13)"/>
</g>
<path d="M782.237 311.479C780.473 305.338 778.561 299.26 776.503 293.249C689.01 368.97 558.7 417 413.166 417C266.775 417 135.788 368.404 48.2881 291.911C100.502 141.207 243.697 33 412.166 33C587.841 33 736.032 150.663 782.237 311.479ZM795.827 385.686C795.822 385.625 795.818 385.565 795.812 385.505C795.818 385.565 795.822 385.625 795.827 385.686ZM793.208 362.603C793.138 362.113 793.066 361.624 792.994 361.136C793.066 361.624 793.138 362.113 793.208 362.603ZM791.752 353.309C791.494 351.781 791.227 350.257 790.95 348.736C791.227 350.257 791.494 351.781 791.752 353.309ZM789.575 341.563C789.259 339.994 788.935 338.428 788.6 336.866C788.935 338.428 789.259 339.994 789.575 341.563ZM785.408 323.214C786.338 326.887 787.216 330.581 788.039 334.296C787.215 330.581 786.338 326.887 785.408 323.214ZM782.896 313.799C783.489 315.91 784.063 318.028 784.62 320.153C784.063 318.028 783.489 315.91 782.896 313.799ZM45.3477 300.746C45.2149 301.162 45.0835 301.578 44.9521 301.994C45.0835 301.578 45.2149 301.162 45.3477 300.746ZM793.38 363.804C793.323 363.403 793.266 363.003 793.208 362.603C793.266 363.003 793.323 363.403 793.38 363.804ZM788.149 334.795C788.271 335.347 788.392 335.899 788.511 336.452C788.391 335.899 788.271 335.347 788.149 334.795ZM36.1592 334.897C36.1064 335.137 36.0523 335.377 36 335.617C36.0523 335.377 36.1064 335.137 36.1592 334.897ZM784.924 321.318C785.061 321.848 785.196 322.378 785.331 322.908C785.196 322.378 785.061 321.848 784.924 321.318Z" fill="url(#paint1_radial_6001_13)" fill-opacity="0.15"/>
<defs>
<filter id="filter0_d_6001_13" x="0" y="0" width="825" height="825" filterUnits="userSpaceOnUse" color-interpolation-filters="sRGB">
<feFlood flood-opacity="0" result="BackgroundImageFix"/>
<feColorMatrix in="SourceAlpha" type="matrix" values="0 0 0 0 0 0 0 0 0 0 0 0 0 0 0 0 0 0 127 0" result="hardAlpha"/>
<feMorphology radius="1" operator="dilate" in="SourceAlpha" result="effect1_dropShadow_6001_13"/>
<feOffset dy="-5"/>
<feGaussianBlur stdDeviation="9.5"/>
<feComposite in2="hardAlpha" operator="out"/>
<feColorMatrix type="matrix" values="0 0 0 0 0 0 0 0 0 0 0 0 0 0 0 0 0 0 0.25 0"/>
<feBlend mode="normal" in2="BackgroundImageFix" result="effect1_dropShadow_6001_13"/>
<feBlend mode="normal" in="SourceGraphic" in2="effect1_dropShadow_6001_13" result="shape"/>
</filter>
<linearGradient id="paint0_linear_6001_13" x1="412.5" y1="25" x2="412.5" y2="810" gradientUnits="userSpaceOnUse">
<stop stop-color="#0B0B0B"/>
<stop offset="1" stop-color="#131313"/>
</linearGradient>
<radialGradient id="paint1_radial_6001_13" cx="0" cy="0" r="1" gradientUnits="userSpaceOnUse" gradientTransform="translate(416 38) rotate(90) scale(379 368.902)">
<stop stop-color="white"/>
<stop offset="1" stop-color="white" stop-opacity="0.4"/>
</radialGradient>
</defs>
</svg>
